<svg xmlns="http://www.w3.org/2000/svg" xmlns:svg="http://www.w3.org/2000/svg" xmlns:xlink="http://www.w3.org/1999/xlink" viewBox="0 0 1500 1500"><title>MSE Diagram</title><style>:focus path{stroke-width:4}.hoverable:hover circle,.hoverable:hover path,.hoverable:hover rect{stroke-width:4}:focus text,g:hover text{stroke:#000;stroke-width:.5}.arrow,.sbpl{stroke:#000;stroke-width:2;stroke-miterlimit:4;stroke-dasharray:none}.sbpl{fill:#cfe2f3;fill-opacity:1;stroke-linejoin:round;stroke-opacity:1}.arrow{fill:none;fill-rule:evenodd;marker-end:url(#TriangleOutL)}.arrow,.audioarrow,.videoarrow{stroke-linecap:butt;stroke-linejoin:miter;stroke-opacity:1}.videoarrow{fill:none;fill-rule:evenodd;stroke:#e06666;stroke-width:2;marker-end:url(#TriangleOutLVideo);stroke-miterlimit:4;stroke-dasharray:none}.audioarrow{stroke:#0a0;marker-end:url(#TriangleOutLAudio)}.audioarrow,.audioline,.line{fill:none;fill-rule:evenodd;stroke-width:2;stroke-miterlimit:4;stroke-dasharray:none}.line{stroke:#000;stroke-linecap:butt;stroke-linejoin:miter;stroke-opacity:1}.audioline{stroke:#0a0}.audioline,.interface,.label{stroke-linecap:butt;stroke-linejoin:miter;stroke-opacity:1}.interface{fill:none;fill-rule:evenodd;stroke:#666;stroke-width:4;stroke-miterlimit:4;stroke-dasharray:15}.label{font-style:normal;font-weight:400;line-height:125%;font-family:sans-serif;letter-spacing:0;word-spacing:0;fill:#000;fill-opacity:1;stroke:none;stroke-width:1px}.video{fill:#e06666}.audio{fill:#d9ead3}</style><defs id="defs"><marker style="overflow:visible" id="TriangleOutL" orient="auto" refX="0" refY="0"><path style="fill-rule:evenodd;stroke:#000;stroke-width:1pt;stroke-opacity:1;fill:#000;fill-opacity:1" d="M 5.77,0.0 L -2.88,5.0 L -2.88,-5.0 L 5.77,0.0 z" transform="scale(0.8)"/></marker><marker style="overflow:visible" id="TriangleOutLVideo" orient="auto" refX="0" refY="0"><path style="fill-rule:evenodd;stroke:#e06666;stroke-width:1pt;stroke-opacity:1;fill:#e06666;fill-opacity:1" d="M 5.77,0.0 L -2.88,5.0 L -2.88,-5.0 L 5.77,0.0 z" transform="scale(0.8)"/></marker><marker style="overflow:visible" id="TriangleOutLAudio" orient="auto" refX="0" refY="0"><path style="fill-rule:evenodd;stroke:#0a0;stroke-width:1pt;stroke-opacity:1;fill:#0a0;fill-opacity:1" d="M 5.77,0.0 L -2.88,5.0 L -2.88,-5.0 L 5.77,0.0 z" transform="scale(0.8)"/></marker></defs><g id="MediaSource" class="hoverable" transform="translate(450,30)"><rect width="300" height="50" x="0" y="0" class="sbpl" ry="8.924"/><text x="70" y="35" class="label" xml:space="preserve" style="font-size:26px">MediaSource</text></g><g id="MediaSourceToSourceBuffer"><path d="m 600,80 0,60" class="arrow"/></g><g id="MediaSourceToSourceBuffer"><path d="m 600,80 345,67" class="arrow"/></g><g id="MediaSourceToSourceBuffer"><path d="m 600,80 -345,67" class="arrow"/></g><g id="MediaPipeLine1" transform="translate(150,150)"><g id="SourceBufferPipeLine"><g id="SourceBuffer" class="hoverable"><rect id="rect4316" width="200" height="80" x="0" y="0" class="sbpl" ry="10"/><text x="20" y="50" class="label" xml:space="preserve" style="font-size:26px">SourceBuffer</text></g><g id="SourceBufferToMediaElement"><path d="m 100,80 0,80" class="arrow"/></g><g id="MediaElement" class="hoverable"><path d="m 35,250 130,0 -65,-80 z" class="sbpl"/></g></g><g id="MediaElementToTrackBuffer"><path d="m 100,250 0,80" class="arrow"/></g><g id="MediaElementToTrackBuffer"><path d="m 100,250 150,85" class="arrow"/></g><g id="MediaElementToTrackBuffer"><path d="m 100,250 -150,85" class="arrow"/></g><g id="TrackBufferPipeline1" transform="translate(-120,350)"><g id="TrackBuffer" class="hoverable"><path d="m 10,-10 0,80 c 0,0 0,5 30,5 25,0 40,-20 65,-20 25,0 25,5 25,5 l 0,-70 z" class="sbpl"/><path d="m 5,-5 0,80 c 0,0 0,5 30,5 25,0 40,-20 65,-20 25,0 25,5 25,5 l 0,-70 z" class="sbpl"/><path d="m 0,0 0,80 c 0,0 0,5 30,5 25,0 40,-20 65,-20 25,0 25,5 25,5 l 0,-70 z" class="sbpl"/><text x="0" y="0" class="label" xml:space="preserve" style="font-size:26px"><tspan x="25" y="30">Track </tspan> <tspan x="25" y="60">Buffer</tspan></text></g><g id="TrackBufferToDecoder"><path d="m 65,74 0,80" class="arrow"/></g><g id="Decoder" class="hoverable"><rect width="130" height="90" x="0" y="165" class="sbpl video"/><text x="0" y="0" class="label" xml:space="preserve" style="font-size:28px"><tspan x="20" y="200">Video </tspan> <tspan x="9" y="230">Decoder</tspan></text></g><g id="VideoDecodelToSwitch"><path d="m 65,255 0,295 890,0" class="videoarrow"/></g></g><g id="TrackBufferPipeline2" transform="translate(35,350)"><g id="TrackBuffer" class="hoverable"><path d="m 10,-10 0,80 c 0,0 0,5 30,5 25,0 40,-20 65,-20 25,0 25,5 25,5 l 0,-70 z" class="sbpl"/><path d="m 5,-5 0,80 c 0,0 0,5 30,5 25,0 40,-20 65,-20 25,0 25,5 25,5 l 0,-70 z" class="sbpl"/><path d="m 0,0 0,80 c 0,0 0,5 30,5 25,0 40,-20 65,-20 25,0 25,5 25,5 l 0,-70 z" class="sbpl"/><text x="0" y="0" class="label" xml:space="preserve" style="font-size:26px"><tspan x="25" y="30">Track </tspan> <tspan x="25" y="60">Buffer</tspan></text></g><g id="TrackBufferToDecoder"><path d="m 65,74 0,80" class="arrow"/></g><g id="Decoder" class="hoverable"><rect width="130" height="90" x="0" y="165" class="sbpl audio"/><text x="0" y="0" class="label" xml:space="preserve" style="font-size:28px"><tspan x="20" y="200">Audio </tspan> <tspan x="9" y="230">Decoder</tspan></text></g><g id="AudioDecoderSwitch"><path d="m 65,255 0,55 20,30" class="audioline"/><circle cx="65" cy="340" r="5" fill="#fff" stroke="#000" stroke-width="3"/><path d="m 65,345 130,65" class="audioarrow"/></g></g><g id="TrackBufferPipeline3" transform="translate(190,350)"><g id="TrackBuffer" class="hoverable"><path d="m 10,-10 0,80 c 0,0 0,5 30,5 25,0 40,-20 65,-20 25,0 25,5 25,5 l 0,-70 z" class="sbpl"/><path d="m 5,-5 0,80 c 0,0 0,5 30,5 25,0 40,-20 65,-20 25,0 25,5 25,5 l 0,-70 z" class="sbpl"/><path d="m 0,0 0,80 c 0,0 0,5 30,5 25,0 40,-20 65,-20 25,0 25,5 25,5 l 0,-70 z" class="sbpl"/><text x="0" y="0" class="label" xml:space="preserve" style="font-size:26px"><tspan x="25" y="30">Track </tspan> <tspan x="25" y="60">Buffer</tspan></text></g><g id="TrackBufferToDecoder"><path d="m 65,74 0,80" class="arrow"/></g><g id="Decoder" class="hoverable"><rect width="130" height="90" x="0" y="165" class="sbpl audio"/><text x="0" y="0" class="label" xml:space="preserve" style="font-size:28px"><tspan x="20" y="200">Audio </tspan> <tspan x="9" y="230">Decoder</tspan></text></g><g id="AudioDecoderSwitch"><path d="m 65,255 0,55 8,38" class="audioline"/><circle cx="65" cy="340" r="5" fill="#fff" stroke="#000" stroke-width="3"/><path d="m 65,343 0,55" class="audioarrow"/></g></g></g><g id="MediaPipeLine2" transform="translate(500,150)"><g id="SourceBufferPipeLine"><g id="SourceBuffer" class="hoverable"><rect id="rect4316" width="200" height="80" x="0" y="0" class="sbpl" ry="10"/><text x="20" y="50" class="label" xml:space="preserve" style="font-size:26px">SourceBuffer</text></g><g id="SourceBufferToMediaElement"><path d="m 100,80 0,80" class="arrow"/></g><g id="MediaElement" class="hoverable"><path d="m 35,250 130,0 -65,-80 z" class="sbpl"/></g></g><g id="MediaElementToTrackBuffer"><path d="m 100,250 0,80" class="arrow"/></g><g id="TrackBufferPipeline2" transform="translate(35,350)"><g id="TrackBuffer" class="hoverable"><path d="m 10,-10 0,80 c 0,0 0,5 30,5 25,0 40,-20 65,-20 25,0 25,5 25,5 l 0,-70 z" class="sbpl"/><path d="m 5,-5 0,80 c 0,0 0,5 30,5 25,0 40,-20 65,-20 25,0 25,5 25,5 l 0,-70 z" class="sbpl"/><path d="m 0,0 0,80 c 0,0 0,5 30,5 25,0 40,-20 65,-20 25,0 25,5 25,5 l 0,-70 z" class="sbpl"/><text x="0" y="0" class="label" xml:space="preserve" style="font-size:26px"><tspan x="25" y="30">Track </tspan> <tspan x="25" y="60">Buffer</tspan></text></g><g id="TrackBufferToDecoder"><path d="m 65,74 0,80" class="arrow"/></g><g id="Decoder" class="hoverable"><rect width="130" height="90" x="0" y="165" class="sbpl video"/><text x="0" y="0" class="label" xml:space="preserve" style="font-size:28px"><tspan x="20" y="200">Video </tspan> <tspan x="9" y="230">Decoder</tspan></text></g><g id="VideoDecoderToSwitch"><path d="m 65,255 0,265 385,0" class="videoarrow"/></g></g></g><g id="MediaPipeLine2" transform="translate(850,150)"><g id="SourceBufferPipeLine"><g id="SourceBuffer" class="hoverable"><rect id="rect4316" width="200" height="80" x="0" y="0" class="sbpl" ry="10"/><text x="20" y="50" class="label" xml:space="preserve" style="font-size:26px">SourceBuffer</text></g><g id="SourceBufferToMediaElement"><path d="m 100,80 0,80" class="arrow"/></g><g id="MediaElement" class="hoverable"><path d="m 35,250 130,0 -65,-80 z" class="sbpl"/></g></g><g id="MediaElementToTrackBuffer"><path d="m 100,250 0,80" class="arrow"/></g><g id="TrackBufferPipeline2" transform="translate(35,350)"><g id="TrackBuffer" class="hoverable"><path d="m 10,-10 0,80 c 0,0 0,5 30,5 25,0 40,-20 65,-20 25,0 25,5 25,5 l 0,-70 z" class="sbpl"/><path d="m 5,-5 0,80 c 0,0 0,5 30,5 25,0 40,-20 65,-20 25,0 25,5 25,5 l 0,-70 z" class="sbpl"/><path d="m 0,0 0,80 c 0,0 0,5 30,5 25,0 40,-20 65,-20 25,0 25,5 25,5 l 0,-70 z" class="sbpl"/><text x="0" y="0" class="label" xml:space="preserve" style="font-size:26px"><tspan x="25" y="30">Track </tspan> <tspan x="25" y="60">Buffer</tspan></text></g><g id="TrackBufferToDecoder"><path id="path4679" d="m 65,74 0,80" class="arrow"/></g><g id="Decoder" class="hoverable"><rect width="130" height="90" x="0" y="165" class="sbpl audio"/><text x="0" y="0" class="label" xml:space="preserve" style="font-size:28px"><tspan x="20" y="200">Audio </tspan> <tspan x="9" y="230">Decoder</tspan></text></g><g id="AudioDecoderSwitch"><path d="m 65,255 0,55 8,38" class="audioline"/><circle cx="65" cy="340" r="5" fill="#fff" stroke="#000" stroke-width="3"/><path d="m 65,345 -515,70" class="audioarrow"/></g></g></g><g id="Audio mixer" class="hoverable" transform="translate(405,940)"><circle cx="0" cy="0" r="30" stroke="#000" stroke-width="3" class="audio"/><path d="m -22,-22 44,44" class="line"/><path d="m 22,-22 -44,44" class="line"/><path d="m 30,0 653,0" class="audioarrow"/></g><g id="AudioDevice" class="hoverable"><path d="m 0,40 40,40 170,0 c 50,0 50,-80 0,-80 l -170,0 z" class="sbpl audio" transform="translate(1100,900)"/><text x="40" y="50" class="label" transform="translate(1100,900)" xml:space="preserve" style="font-size:28px">Audio Device</text></g><g id="VideoSourceSelector" class="hoverable" transform="translate(1000,1020)"><circle cx="0" cy="0" r="5" fill="#fff" stroke="#000" stroke-width="3"/><circle cx="0" cy="15" r="5" fill="#fff" stroke="#000" stroke-width="3"/><circle cx="0" cy="30" r="5" fill="#fff" stroke="#000" stroke-width="3"/><path d="m 3,3 30,15 56,0" class="videoarrow"/></g><g id="VideoTagDisplayRegion" class="hoverable"><path d="m 0,40 40,40 170,0 c 50,0 50,-80 0,-80 l -170,0 z" class="sbpl video" transform="translate(1100,1000)"/><text style="font-size:26px" class="label" transform="translate(1100,1000)" xml:space="preserve"><tspan x="40" y="35">Video Tag</tspan> <tspan x="40" y="65">Display Region</tspan></text></g><g id="InterfaceBoundary" class="hoverable"><text style="font-size:20px;fill:#666" x="20" y="310" class="label" xml:space="preserve">Media Source API</text><path d="m 20,320 1140,0" class="interface"/><text style="font-size:20px;fill:#666" x="20" y="345" class="label" xml:space="preserve">HTML Media Element</text></g></svg>