<svg xmlns="http://www.w3.org/2000/svg" xmlns:xlink="http://www.w3.org/1999/xlink" width="4121" height="2401" overflow="hidden"><defs><clipPath id="clip0"><rect width="4121" height="2401" x="3617" y="545"/></clipPath><clipPath id="clip1"><rect width="4118" height="2399" x="3618" y="545"/></clipPath><clipPath id="clip2"><rect width="3606" height="1773" x="4083" y="1016"/></clipPath><clipPath id="clip3"><rect width="3606" height="1773" x="4083" y="1016"/></clipPath><clipPath id="clip4"><rect width="4118" height="2399" x="3618" y="545"/></clipPath><clipPath id="clip5"><rect width="4118" height="2399" x="3618" y="545"/></clipPath><clipPath id="clip6"><rect width="4118" height="2399" x="3618" y="545"/></clipPath><clipPath id="clip7"><rect width="4118" height="2399" x="3618" y="545"/></clipPath><clipPath id="clip8"><rect width="4118" height="2399" x="3618" y="545"/></clipPath><clipPath id="clip9"><rect width="4118" height="2399" x="3618" y="545"/></clipPath><clipPath id="clip10"><rect width="4118" height="2399" x="3618" y="545"/></clipPath><clipPath id="clip11"><rect width="4118" height="2399" x="3618" y="545"/></clipPath><clipPath id="clip12"><rect width="4118" height="2399" x="3618" y="545"/></clipPath><clipPath id="clip13"><rect width="4118" height="2399" x="3618" y="545"/></clipPath><clipPath id="clip14"><rect width="4118" height="2399" x="3618" y="545"/></clipPath><clipPath id="clip15"><rect width="4118" height="2399" x="3618" y="545"/></clipPath><clipPath id="clip16"><rect width="4118" height="2399" x="3618" y="545"/></clipPath><clipPath id="clip17"><rect width="4118" height="2399" x="3618" y="545"/></clipPath><clipPath id="clip18"><rect width="4118" height="2399" x="3618" y="545"/></clipPath><clipPath id="clip19"><rect width="4118" height="2399" x="3618" y="545"/></clipPath><clipPath id="clip20"><rect width="4118" height="2399" x="3618" y="545"/></clipPath><clipPath id="clip21"><rect width="4118" height="2399" x="3618" y="545"/></clipPath><clipPath id="clip22"><rect width="4118" height="2399" x="3618" y="545"/></clipPath><clipPath id="clip23"><rect width="4118" height="2399" x="3618" y="545"/></clipPath><clipPath id="clip24"><rect width="4118" height="2399" x="3618" y="545"/></clipPath><clipPath id="clip25"><rect width="4118" height="2399" x="3618" y="545"/></clipPath><clipPath id="clip26"><rect width="4118" height="2399" x="3618" y="545"/></clipPath><clipPath id="clip27"><rect width="4118" height="2399" x="3618" y="545"/></clipPath><clipPath id="clip28"><rect width="4118" height="2399" x="3618" y="545"/></clipPath><clipPath id="clip29"><rect width="4118" height="2399" x="3618" y="545"/></clipPath><clipPath id="clip30"><rect width="4118" height="2399" x="3618" y="545"/></clipPath><clipPath id="clip31"><rect width="4118" height="2399" x="3618" y="545"/></clipPath><clipPath id="clip32"><rect width="4118" height="2399" x="3618" y="545"/></clipPath><clipPath id="clip33"><rect width="4118" height="2399" x="3618" y="545"/></clipPath></defs><g clip-path="url(#clip0)" transform="translate(-3617 -545)"><rect width="4118" height="2398" x="3618" y="546" fill="#FFF"/><g clip-path="url(#clip1)"><path fill="none" stroke="#D9D9D9" stroke-linejoin="round" stroke-miterlimit="10" stroke-width="3.438" d="M4803.66 1016.5 4803.66 2786.5M5524.68 1016.5 5524.68 2786.5M6244.71 1016.5 6244.71 2786.5M6965.73 1016.5 6965.73 2786.5M7685.5 1016.5 7685.5 2786.5"/></g><g clip-path="url(#clip2)"><path fill="#4F81BD" d="M4238.14 1934.06 4443.15 1934.06 4443.15 2786 4238.14 2786ZM4958.16 2319.08 5164.17 2319.08 5164.17 2786 4958.16 2786ZM5679.19 2566.08 5884.19 2566.08 5884.19 2786 5679.19 2786ZM6399.21 2702.09 6605.22 2702.09 6605.22 2786 6399.21 2786ZM7120.23 2770.09 7325.24 2770.09 7325.24 2786 7120.23 2786Z"/></g><g clip-path="url(#clip3)"><path fill="#C0504D" d="M4443.15 1176.04 4649.15 1176.04 4649.15 2786 4443.15 2786ZM5164.17 1874.06 5370.18 1874.06 5370.18 2786 5164.17 2786ZM5884.19 2209.07 6090.2 2209.07 6090.2 2786 5884.19 2786ZM6605.22 2547.08 6811.22 2547.08 6811.22 2786 6605.22 2786ZM7325.24 2722.09 7531.25 2722.09 7531.25 2786 7325.24 2786Z"/></g><g clip-path="url(#clip4)"><path fill="none" fill-rule="evenodd" stroke="#D9D9D9" stroke-linejoin="round" stroke-miterlimit="10" stroke-width="3.438" d="M0 0 0.000360892 1770" transform="matrix(1 0 0 -1 4083.5 2786.5)"/></g><g clip-path="url(#clip5)"><path fill="none" fill-rule="evenodd" stroke="#D9D9D9" stroke-linejoin="round" stroke-miterlimit="10" stroke-width="3.438" d="M4083.5 2786.5 7685.5 2786.5"/></g><g clip-path="url(#clip6)"><text fill="#7F7F7F" font-family="Times New Roman,Times New Roman_MSFontService,sans-serif" font-size="73" font-weight="700" transform="matrix(1 0 0 1 4271.94 1897)">1220</text></g><g clip-path="url(#clip7)"><text fill="#7F7F7F" font-family="Times New Roman,Times New Roman_MSFontService,sans-serif" font-size="73" font-weight="700" transform="matrix(1 0 0 1 5006.22 2282)">676</text></g><g clip-path="url(#clip8)"><text fill="#7F7F7F" font-family="Times New Roman,Times New Roman_MSFontService,sans-serif" font-size="73" font-weight="700" transform="matrix(1 0 0 1 5726.74 2529)">327</text></g><g clip-path="url(#clip9)"><text fill="#7F7F7F" font-family="Times New Roman,Times New Roman_MSFontService,sans-serif" font-size="73" font-weight="700" transform="matrix(1 0 0 1 6447.26 2665)">135</text></g><g clip-path="url(#clip10)"><text fill="#7F7F7F" font-family="Times New Roman,Times New Roman_MSFontService,sans-serif" font-size="73" font-weight="700" transform="matrix(1 0 0 1 7186.12 2733)">39</text></g><g clip-path="url(#clip11)"><text fill="#7F7F7F" font-family="Times New Roman,Times New Roman_MSFontService,sans-serif" font-size="73" font-weight="700" transform="matrix(1 0 0 1 4473.22 1139)">2290</text></g><g clip-path="url(#clip12)"><text fill="#7F7F7F" font-family="Times New Roman,Times New Roman_MSFontService,sans-serif" font-size="73" font-weight="700" transform="matrix(1 0 0 1 5193.75 1837)">1305</text></g><g clip-path="url(#clip13)"><text fill="#7F7F7F" font-family="Times New Roman,Times New Roman_MSFontService,sans-serif" font-size="73" font-weight="700" transform="matrix(1 0 0 1 5932.6 2172)">832</text></g><g clip-path="url(#clip14)"><text fill="#7F7F7F" font-family="Times New Roman,Times New Roman_MSFontService,sans-serif" font-size="73" font-weight="700" transform="matrix(1 0 0 1 6653.13 2510)">354</text></g><g clip-path="url(#clip15)"><text fill="#7F7F7F" font-family="Times New Roman,Times New Roman_MSFontService,sans-serif" font-size="73" font-weight="700" transform="matrix(1 0 0 1 7373.65 2685)">107</text></g><g clip-path="url(#clip16)"><text fill="#595959" font-family="Times New Roman,Times New Roman_MSFontService,sans-serif" font-size="73" font-weight="700" transform="matrix(1 0 0 1 3929.3 2809)">16</text></g><g clip-path="url(#clip17)"><text fill="#595959" font-family="Times New Roman,Times New Roman_MSFontService,sans-serif" font-size="73" font-weight="700" transform="matrix(1 0 0 1 3892.63 2455)">516</text></g><g clip-path="url(#clip18)"><text fill="#595959" font-family="Times New Roman,Times New Roman_MSFontService,sans-serif" font-size="73" font-weight="700" transform="matrix(1 0 0 1 3855.97 2101)">1016</text></g><g clip-path="url(#clip19)"><text fill="#595959" font-family="Times New Roman,Times New Roman_MSFontService,sans-serif" font-size="73" font-weight="700" transform="matrix(1 0 0 1 3855.97 1747)">1516</text></g><g clip-path="url(#clip20)"><text fill="#595959" font-family="Times New Roman,Times New Roman_MSFontService,sans-serif" font-size="73" font-weight="700" transform="matrix(1 0 0 1 3855.97 1393)">2016</text></g><g clip-path="url(#clip21)"><text fill="#595959" font-family="Times New Roman,Times New Roman_MSFontService,sans-serif" font-size="73" font-weight="700" transform="matrix(1 0 0 1 3855.97 1038)">2516</text></g><g clip-path="url(#clip22)"><text fill="#595959" font-family="Times New Roman,Times New Roman_MSFontService,sans-serif" font-size="73" font-weight="700" transform="matrix(1 0 0 1 4139.49 2898)">360p/60/420kbps</text></g><g clip-path="url(#clip23)"><text fill="#595959" font-family="Times New Roman,Times New Roman_MSFontService,sans-serif" font-size="73" font-weight="700" transform="matrix(1 0 0 1 4860.01 2898)">480p/60/930kbps</text></g><g clip-path="url(#clip24)"><text fill="#595959" font-family="Times New Roman,Times New Roman_MSFontService,sans-serif" font-size="73" font-weight="700" transform="matrix(1 0 0 1 5559.45 2898)">720p/60/1027kbps</text></g><g clip-path="url(#clip25)"><text fill="#595959" font-family="Times New Roman,Times New Roman_MSFontService,sans-serif" font-size="73" font-weight="700" transform="matrix(1 0 0 1 6258.89 2898)">1080p/60/3050kpbs</text></g><g clip-path="url(#clip26)"><text fill="#595959" font-family="Times New Roman,Times New Roman_MSFontService,sans-serif" font-size="73" font-weight="700" transform="matrix(1 0 0 1 7042.66 2898)">4k/60/6296kbps</text></g><g clip-path="url(#clip27)"><text fill="#595959" font-family="SimSun,SimSun_MSFontService,sans-serif" font-size="128" font-weight="700" transform="matrix(6.12323e-17 -1 1 6.12323e-17 3805.37 2288)">每秒解码帧数</text></g><g clip-path="url(#clip28)"><text fill="#595959" font-family="Times New Roman,Times New Roman_MSFontService,sans-serif" font-size="165" font-weight="700" transform="matrix(1 0 0 1 4954.37 734)">WASM DECODER</text></g><g clip-path="url(#clip29)"><rect width="55" height="55" x="5226" y="851" fill="#4F81BD"/></g><g clip-path="url(#clip30)"><text fill="#595959" font-family="SimSun,SimSun_MSFontService,sans-serif" font-size="110" font-weight="700" transform="matrix(1 0 0 1 5306.36 915)">非</text></g><g clip-path="url(#clip31)"><text fill="#595959" font-family="Times New Roman,Times New Roman_MSFontService,sans-serif" font-size="110" font-weight="700" transform="matrix(1 0 0 1 5416.79 915)">SIMD</text></g><g clip-path="url(#clip32)"><rect width="55" height="55" x="5793" y="851" fill="#C0504D"/></g><g clip-path="url(#clip33)"><text fill="#595959" font-family="Times New Roman,Times New Roman_MSFontService,sans-serif" font-size="110" font-weight="700" transform="matrix(1 0 0 1 5873.93 913)">SIMD</text></g><rect width="4118" height="2398" x="3618.5" y="546.5" fill="none" stroke="#D9D9D9" stroke-linejoin="round" stroke-miterlimit="10" stroke-width="3.438"/></g></svg>